<?xml version="1.0" standalone="no"?>
<!DOCTYPE svg PUBLIC "-//W3C//DTD SVG 20010904//EN"
 "http://www.w3.org/TR/2001/REC-SVG-20010904/DTD/svg10.dtd">
<svg version="1.0" xmlns="http://www.w3.org/2000/svg"
 width="470.000000pt" height="470.000000pt" viewBox="0 0 470.000000 470.000000"
 preserveAspectRatio="xMidYMid meet">
<metadata>
Created by potrace 1.11, written by Peter Selinger 2001-2013
</metadata>
<g transform="translate(0.000000,470.000000) scale(0.100000,-0.100000)"
fill="#000000" stroke="none">
<path d="M2435 4628 c-51 -28 -163 -129 -230 -206 -161 -183 -236 -363 -266
-637 -24 -224 7 -472 91 -720 221 -654 230 -699 232 -1200 1 -199 -2 -275 -17
-415 -3 -25 -14 -139 -25 -255 -11 -115 -27 -275 -35 -354 -30 -280 -21 -443
28 -537 22 -43 80 -91 123 -103 78 -22 180 22 216 93 19 36 22 65 29 251 4
116 6 224 4 240 -3 17 -11 140 -20 275 -8 135 -18 283 -21 330 -11 153 -14
981 -5 1165 12 222 18 544 27 1370 l6 640 -24 35 c-18 27 -31 36 -58 37 -19 2
-44 -2 -55 -9z m98 -59 c-4 -13 -9 -17 -16 -10 -12 12 -1 45 12 37 5 -3 7 -15
4 -27z"/>
<path d="M1090 4500 c-13 -8 -16 -89 -20 -593 -5 -633 -4 -617 -60 -617 -45 0
-54 21 -57 138 -7 261 -5 346 18 767 7 121 10 232 6 247 -9 34 -33 58 -57 58
-42 0 -55 -46 -95 -345 -4 -27 -13 -81 -20 -120 -8 -38 -17 -122 -20 -185 -4
-63 -8 -125 -10 -138 -2 -13 -9 -144 -16 -290 -11 -264 -11 -268 11 -324 24
-64 63 -109 120 -138 41 -21 91 -73 116 -123 26 -49 36 -270 29 -617 -4 -168
-8 -334 -11 -370 -2 -36 -6 -94 -8 -130 -4 -66 -36 -312 -61 -475 -7 -49 -16
-111 -19 -136 -4 -25 -19 -106 -35 -180 -50 -231 -56 -278 -55 -439 0 -134 3
-162 22 -210 43 -109 129 -169 239 -170 161 0 244 88 265 279 16 155 4 353
-38 586 -46 254 -65 384 -70 464 -3 53 -7 109 -9 124 -18 141 -25 1103 -9
1197 14 83 72 152 164 196 68 33 114 85 148 167 23 55 26 75 25 182 -1 163
-30 396 -99 790 -31 180 -90 385 -115 401 -18 11 -60 -6 -67 -27 -5 -11 -3
-69 4 -127 7 -59 15 -136 18 -172 4 -36 9 -76 11 -90 14 -78 36 -420 38 -576
2 -166 0 -183 -17 -203 -23 -25 -58 -27 -77 -5 -7 9 -14 39 -15 68 -3 71 -12
219 -19 296 -3 36 -7 103 -10 150 -8 129 -14 229 -19 295 -11 138 -19 261 -18
280 1 39 -21 106 -39 115 -22 13 -50 12 -69 0z m452 -1245 c-3 -17 -8 -23 -14
-17 -11 11 -1 55 11 47 5 -2 6 -16 3 -30z m-86 -200 c-11 -8 -24 -15 -30 -15
-5 0 -1 7 10 15 10 8 24 14 29 14 6 0 1 -6 -9 -14z m-516 -35 c0 -5 -7 -7 -15
-4 -8 4 -15 8 -15 10 0 2 7 4 15 4 8 0 15 -4 15 -10z m100 0 c0 -4 12 -6 28
-4 35 4 144 7 157 4 6 -1 14 -2 18 -1 5 1 6 -3 2 -9 -3 -5 -24 -9 -46 -8 -21
1 -42 -1 -45 -4 -3 -4 -18 -3 -33 2 -15 4 -35 3 -44 -2 -11 -5 -24 -5 -36 2
-11 5 -31 11 -45 12 -13 1 -23 5 -21 8 5 8 65 8 65 0z m260 -1 c0 -6 7 -8 18
-4 12 4 14 3 6 -5 -6 -6 -18 -8 -27 -4 -18 7 -23 24 -7 24 6 0 10 -5 10 -11z"/>
<path d="M3460 4411 c-128 -42 -256 -173 -348 -356 -71 -143 -135 -420 -127
-556 6 -102 22 -157 76 -257 60 -112 85 -145 199 -267 180 -193 217 -267 230
-464 33 -481 18 -963 -45 -1471 -20 -159 -25 -236 -30 -450 -6 -257 17 -421
67 -480 25 -30 83 -68 113 -74 123 -24 192 -13 241 40 57 59 69 116 68 309 -1
158 -9 316 -19 375 -2 14 -7 48 -10 75 -3 28 -28 179 -55 336 -28 158 -54 320
-59 360 -20 152 -53 844 -47 969 9 201 20 229 181 455 147 206 186 272 208
350 14 52 34 196 35 260 1 57 -31 223 -57 299 -49 141 -183 375 -211 368 -6
-1 -8 2 -5 9 12 18 -92 109 -163 142 -51 24 -82 31 -141 33 -42 2 -87 0 -101
-5z m-351 -1013 c11 -11 12 -10 6 2 -6 10 -2 9 12 -3 17 -15 25 -16 43 -7 11
6 26 9 33 6 7 -2 4 -5 -5 -5 -31 -2 -19 -21 12 -21 17 0 33 1 36 3 3 1 10 -6
15 -15 13 -23 27 -23 25 -2 0 9 5 19 13 22 9 3 12 0 9 -9 -4 -9 1 -16 13 -17
11 -1 28 -3 38 -4 11 -1 18 -5 15 -9 -2 -4 4 -13 13 -20 15 -12 16 -12 10 4
-6 15 -4 16 13 7 11 -6 25 -8 30 -5 5 3 11 1 15 -5 3 -5 -2 -10 -12 -10 -15 0
-16 -2 -3 -10 16 -10 8 -14 -25 -10 -28 3 -14 -9 24 -20 18 -5 29 -5 26 0 -6
10 26 30 47 30 7 -1 2 -7 -11 -14 -23 -13 -23 -13 23 -35 25 -13 46 -28 46
-35 0 -6 9 -19 20 -29 18 -16 20 -15 30 3 5 10 10 25 10 32 0 7 4 19 9 27 8
12 12 11 28 -4 17 -18 17 -19 0 -12 -13 5 -17 3 -15 -5 3 -7 14 -14 25 -16 26
-4 34 -33 16 -58 -12 -16 -15 -17 -24 -4 -7 11 -8 8 -3 -12 5 -22 1 -28 -23
-40 -15 -8 -27 -20 -25 -28 3 -11 0 -11 -12 -1 -8 7 -20 10 -25 7 -5 -4 -14 1
-19 10 -8 14 -16 15 -54 7 -28 -6 -52 -7 -62 -1 -12 7 -16 5 -14 -4 4 -17 -24
-17 -30 1 -3 8 0 11 7 7 7 -5 9 -1 5 8 -3 9 -10 16 -16 16 -5 0 -7 -4 -4 -9 3
-5 0 -11 -8 -14 -8 -3 -13 1 -12 11 0 9 -7 18 -18 20 -10 2 -16 0 -12 -6 4 -6
-2 -8 -14 -5 -25 7 -26 20 -2 27 9 3 5 4 -10 2 -15 -2 -25 1 -22 5 3 5 12 9
20 9 8 0 13 4 9 9 -3 6 -21 5 -44 -4 -22 -7 -42 -11 -46 -7 -3 3 -3 -1 0 -10
4 -9 2 -19 -4 -23 -16 -9 -13 -25 4 -25 9 0 12 -6 9 -15 -4 -10 0 -15 11 -15
9 0 14 -4 10 -10 -3 -5 3 -18 15 -30 11 -11 16 -20 11 -20 -5 0 -21 17 -37 38
-16 20 -38 47 -51 59 -53 54 -123 183 -126 232 -1 14 -6 29 -11 32 -5 4 -3 14
5 23 17 19 21 19 38 4z m376 -88 c3 -5 1 -10 -4 -10 -6 0 -11 5 -11 10 0 6 2
10 4 10 3 0 8 -4 11 -10z m275 -65 c7 -9 8 -15 2 -15 -5 0 -12 7 -16 15 -3 8
-4 15 -2 15 2 0 9 -7 16 -15z m-166 -30 c3 -8 1 -15 -4 -15 -6 0 -10 7 -10 15
0 8 2 15 4 15 2 0 6 -7 10 -15z m176 -5 c0 -5 -5 -10 -11 -10 -5 0 -7 5 -4 10
3 6 8 10 11 10 2 0 4 -4 4 -10z m115 -180 c-3 -5 -11 -10 -16 -10 -6 0 -7 5
-4 10 3 6 11 10 16 10 6 0 7 -4 4 -10z m-35 -34 c0 -2 -7 -7 -16 -10 -8 -3
-12 -2 -9 4 6 10 25 14 25 6z m-500 -46 c17 -22 29 -40 27 -40 -3 0 -20 18
-37 40 -17 22 -29 40 -27 40 3 0 20 -18 37 -40z m470 -14 c0 -2 -7 -7 -16 -10
-8 -3 -12 -2 -9 4 6 10 25 14 25 6z m-52 -48 c-12 -12 -27 -24 -33 -25 -5 -1
-28 -9 -50 -17 -22 -8 -58 -15 -80 -14 -40 0 -40 0 10 9 62 10 130 36 145 55
7 7 16 14 21 14 5 0 -1 -10 -13 -22z m-298 -40 c0 -6 -6 -5 -15 2 -8 7 -15 14
-15 16 0 2 7 1 15 -2 8 -4 15 -11 15 -16z m70 -8 c20 -6 21 -8 5 -8 -11 0 -29
3 -40 8 -25 11 1 11 35 0z"/>
<path d="M3360 3286 c0 -2 7 -7 16 -10 8 -3 12 -2 9 4 -6 10 -25 14 -25 6z"/>
<path d="M3521 3174 c0 -11 3 -14 6 -6 3 7 2 16 -1 19 -3 4 -6 -2 -5 -13z"/>
<path d="M3206 3141 c-4 -5 -2 -12 3 -15 5 -4 12 -2 15 3 4 5 2 12 -3 15 -5 4
-12 2 -15 -3z"/>
<path d="M3520 3140 c-11 -7 -7 -10 17 -10 24 0 37 -7 49 -25 9 -14 20 -22 25
-20 10 7 -49 65 -65 65 -6 0 -18 -5 -26 -10z"/>
</g>
</svg>
